<svg version="1.1" xmlns="http://www.w3.org/2000/svg" xmlns:xlink="http://www.w3.org/1999/xlink" width="1222" height="469" viewBox="0 0 1222 469"><defs/><g transform="matrix(1,0,0,1,0,0)"><g><g><g><path fill="none" stroke="#d3d3d3" paint-order="fill stroke markers" d=" M 0 0 L 1200 0" stroke-miterlimit="10" stroke-opacity="0.8" stroke-dasharray="5"/></g><g><path fill="none" stroke="#d3d3d3" paint-order="fill stroke markers" d=" M 0 0 L 0 800" stroke-miterlimit="10" stroke-opacity="0.8" stroke-dasharray="5"/></g></g><g id="_D4E63DAA-02BE-44BD-9C3D-23D651C44527" bpmn2nodeid="_D4E63DAA-02BE-44BD-9C3D-23D651C44527" transform="matrix(1,0,0,1,155,114)"><g><path fill="none" stroke="none"/></g><g transform="matrix(0.125,0,0,0.125,0,0)"><g transform="matrix(1,0,0,1,0,0)"><path fill="#e8fae6" stroke="none" id="_D4E63DAA-02BE-44BD-9C3D-23D651C44527?shapeType=BACKGROUND" paint-order="stroke fill markers" d=" M 0 0 M 444 224 C 444 263.9 434.2 300.8 414.4 334.5 C 394.7 368.2 368 394.9 334.4 414.5 C 300.79999999999995 434.1 263.9 444 224 444 C 184.10000000000002 444 147.2 434.2 113.5 414.4 C 79.8 394.7 53.1 368 33.5 334.4 C 13.899999999999999 300.79999999999995 4 263.9 4 224 C 4 184.10000000000002 13.8 147.2 33.6 113.5 C 53.400000000000006 79.80000000000001 80.1 53.1 113.6 33.5 C 147.1 13.899999999999999 184.1 4 224 4 C 263.9 4 300.8 13.8 334.5 33.6 C 368.2 53.400000000000006 394.9 80.1 414.5 113.6 C 434.1 147.1 444 184.1 444 224 Z"/></g><g><g transform="matrix(1,0,0,1,0,0)"><g transform="matrix(1,0,0,1,0,0)"><path fill="rgb(74,162,65)" stroke="none" id="_D4E63DAA-02BE-44BD-9C3D-23D651C44527?shapeType=BORDER&amp;renderType=FILL" paint-order="stroke fill markers" d=" M 0 0 M 224 0 C 100.3 0 0 100.3 0 224 C 0 347.7 100.3 448 224 448 C 347.7 448 448 347.7 448 224 C 448 100.30000000000001 347.7 0 224 0 Z M 0 0 M 224 432 C 109.1 432 16 338.9 16 224 C 16 109.10000000000002 109.1 16 224 16 C 338.9 16 432 109.1 432 224 C 432 338.9 338.9 432 224 432 Z"/></g></g></g></g><g transform="matrix(1,0,0,1,-69.6015625,61)"><text fill="#000000" stroke="none" font-family="Open Sans" font-size="12pt" font-style="normal" font-weight="normal" text-decoration="normal" x="97.6015625" y="12" text-anchor="middle" dominant-baseline="alphabetic">Cliente seleciona check-in </text><text fill="#000000" stroke="none" font-family="Open Sans" font-size="12pt" font-style="normal" font-weight="normal" text-decoration="normal" x="97.6015625" y="27" text-anchor="middle" dominant-baseline="alphabetic">            no aplicativo            </text></g></g><g transform="matrix(1,0,0,1,155,114)"/><g id="_4925E2B0-A706-4178-B194-2C9278EF9EF0" bpmn2nodeid="_4925E2B0-A706-4178-B194-2C9278EF9EF0" transform="matrix(1,0,0,1,376,91)"><g><path fill="none" stroke="none"/></g><g transform="matrix(1,0,0,1,0,0)"><path fill="#ffffff" stroke="none" id="_4925E2B0-A706-4178-B194-2C9278EF9EF0?shapeType=BACKGROUND" paint-order="stroke fill markers" d=" M 2 0 L 152 0 L 152 0 A 2 2 0 0 1 154 2 L 154 100 L 154 100 A 2 2 0 0 1 152 102 L 2 102 L 2 102 A 2 2 0 0 1 0 100 L 0 2 L 0 2.0000000000000004 A 2 2 0 0 1 1.9999999999999996 0 Z"/></g><g transform="matrix(1,0,0,1,0,0)"><path fill="none" stroke="rgb(0,0,0)" id="_4925E2B0-A706-4178-B194-2C9278EF9EF0?shapeType=BORDER&amp;renderType=STROKE" paint-order="fill stroke markers" d=" M 2 0 L 152 0 L 152 0 A 2 2 0 0 1 154 2 L 154 100 L 154 100 A 2 2 0 0 1 152 102 L 2 102 L 2 102 A 2 2 0 0 1 0 100 L 0 2 L 0 2.0000000000000004 A 2 2 0 0 1 1.9999999999999996 0 Z" stroke-miterlimit="10" stroke-width="1.5" stroke-dasharray=""/></g><g transform="matrix(1,0,0,1,23.8125,36)"><text fill="#000000" stroke="none" font-family="Open Sans" font-size="12pt" font-style="normal" font-weight="normal" text-decoration="normal" x="53.1875" y="12" text-anchor="middle" dominant-baseline="alphabetic">App identifica </text><text fill="#000000" stroke="none" font-family="Open Sans" font-size="12pt" font-style="normal" font-weight="normal" text-decoration="normal" x="53.1875" y="27" text-anchor="middle" dominant-baseline="alphabetic">    idUsuario    </text></g></g><g id="_96DEBD87-CEBC-44D8-9BFA-DC28565C32BF" bpmn2nodeid="_96DEBD87-CEBC-44D8-9BFA-DC28565C32BF"><g><path fill="none" stroke="rgb(0,0,0)" paint-order="fill stroke markers" d=" M 211 142 L 361 142" stroke-miterlimit="10" stroke-dasharray=""/></g><g transform="matrix(1,0,0,1,211,142)"/><g transform="matrix(6.123233995736766e-17,1,-1,6.123233995736766e-17,376,137)"><path fill="rgb(0,0,0)" stroke="rgb(0,0,0)" paint-order="fill stroke markers" d=" M 10 15 L 0 15 L 5 0 Z" stroke-miterlimit="10" stroke-dasharray=""/></g><g transform="matrix(1,0,0,1,211,132)"/></g><g id="_61BE99E7-667B-49F0-BB92-5F897DFF0180" bpmn2nodeid="_61BE99E7-667B-49F0-BB92-5F897DFF0180" transform="matrix(1,0,0,1,423,217)"><g><path fill="none" stroke="none"/></g><g transform="matrix(0.1088409706437762,0,0,0.13071895424836602,0,0)"><g transform="matrix(1,0,0,1,0,0)"><path fill="rgb(255,255,255)" stroke="rgb(0,0,0)" id="_61BE99E7-667B-49F0-BB92-5F897DFF0180?shapeType=BORDER&amp;renderType=STROKE" paint-order="fill stroke markers" d=" M 0 0 M 404.814 0 L 60.736 0 L 60.736 612 L 551.263 612 L 551.263 153 Z M 0 0 M 404.814 0 L 551.263 153 L 404.78839000000005 151.8588 Z" stroke-miterlimit="10" stroke-width="7" stroke-dasharray="0"/></g><g transform="matrix(1,0,0,1,0,0)"><path fill="#ffffff" stroke="none" id="_61BE99E7-667B-49F0-BB92-5F897DFF0180undefined" paint-order="stroke fill markers" d=" M 0 0 M 407.78 5.025422 L 408.62229 150.15254 L 545.9156 151 Z"/></g></g><g transform="matrix(1,0,0,1,-6.046875,85)"><text fill="#000000" stroke="none" font-family="Open Sans" font-size="12pt" font-style="normal" font-weight="normal" text-decoration="normal" x="36.046875" y="12" text-anchor="middle" dominant-baseline="alphabetic">idUsuario</text></g></g><g transform="matrix(1,0,0,1,423,217)"/><g transform="matrix(1,0,0,1,376,91)"/><g id="_2C8C1E71-F792-4B22-A6EA-EB8096EFB7C8" bpmn2nodeid="_2C8C1E71-F792-4B22-A6EA-EB8096EFB7C8" transform="matrix(1,0,0,1,733,82)"><g><path fill="none" stroke="none"/></g><g transform="matrix(1,0,0,1,0,0)"><path fill="#ffffff" stroke="none" id="_2C8C1E71-F792-4B22-A6EA-EB8096EFB7C8?shapeType=BACKGROUND" paint-order="stroke fill markers" d=" M 2 0 L 162 0 L 162 0 A 2 2 0 0 1 164 2 L 164 117 L 164 117 A 2 2 0 0 1 162 119 L 2 119 L 2 119 A 2 2 0 0 1 0 117 L 0 2 L 0 2.0000000000000004 A 2 2 0 0 1 1.9999999999999996 0 Z"/></g><g transform="matrix(1,0,0,1,0,0)"><path fill="none" stroke="rgb(57,63,68)" id="_2C8C1E71-F792-4B22-A6EA-EB8096EFB7C8?shapeType=BORDER&amp;renderType=STROKE" paint-order="fill stroke markers" d=" M 2 0 L 162 0 L 162 0 A 2 2 0 0 1 164 2 L 164 117 L 164 117 A 2 2 0 0 1 162 119 L 2 119 L 2 119 A 2 2 0 0 1 0 117 L 0 2 L 0 2.0000000000000004 A 2 2 0 0 1 1.9999999999999996 0 Z" stroke-miterlimit="10" stroke-width="1.5" stroke-dasharray=""/></g><g transform="matrix(1,0,0,1,6.5,28)"><g transform="matrix(1,0,0,1,0,0)"><g transform="matrix(1,0,0,1,63,66)"><path fill="none" stroke="#393f44" id="_2C8C1E71-F792-4B22-A6EA-EB8096EFB7C8undefined" paint-order="fill stroke markers" d=" M 0 0 L 25 0 L 25 25 L 0 25 L 0 0 Z Z" stroke-miterlimit="10" stroke-width="1.5" stroke-dasharray=""/></g><g transform="matrix(0.04,0,0,0.04,68.64,69.6)"><path fill="#000000" stroke="#000000" id="_2C8C1E71-F792-4B22-A6EA-EB8096EFB7C8undefined" paint-order="fill stroke markers" d=" M 0 0 M 352 184 L 352 232 C 352 238.7 349.7 244.3 345 249 C 340.3 253.7 334.7 256 328 256 L 224 256 L 224 360 C 224 366.7 221.7 372.3 217 377 C 212.3 381.7 206.7 384 200 384 L 152 384 C 145.3 384 139.7 381.7 135 377 C 130.3 372.3 128 366.7 128 360 L 128 256 L 24 256 C 17.3 256 11.7 253.7 7 249 C 2.3000000000000007 244.3 0 238.7 0 232 L 0 184 C 0 177.3 2.3 171.7 7 167 C 11.7 162.3 17.3 160 24 160 L 128 160 L 128 56 C 128 49.3 130.3 43.7 135 39 C 139.7 34.3 145.3 32 152 32 L 200 32 C 206.7 32 212.3 34.3 217 39 C 221.7 43.7 224 49.3 224 56 L 224 160 L 328 160 C 334.7 160 340.3 162.3 345 167 C 349.7 171.7 352 177.3 352 184 Z" stroke-miterlimit="10" stroke-dasharray=""/></g></g></g><g transform="matrix(1,0,0,1,18.32,28)"><g transform="matrix(1,0,0,1,0,0)"><g transform="matrix(1,0,0,1,63,66)"><path fill="none" stroke="none"/></g><g transform="matrix(0.04,0,0,0.04,68.64,69.6)"><path fill="none" stroke="none"/></g><g transform="matrix(0.04,0,0,0.04,40.32,71.04)"><path fill="none" stroke="none"/></g><g transform="matrix(0.04,0,0,0.04,39.36,72)"><path fill="none" stroke="none"/></g></g></g><g transform="matrix(1,0,0,1,30.0859375,44.5)"><text fill="#000000" stroke="none" font-family="Open Sans" font-size="12pt" font-style="normal" font-weight="normal" text-decoration="normal" x="51.9140625" y="12" text-anchor="middle" dominant-baseline="alphabetic">Chamada API </text><text fill="#000000" stroke="none" font-family="Open Sans" font-size="12pt" font-style="normal" font-weight="normal" text-decoration="normal" x="51.9140625" y="27" text-anchor="middle" dominant-baseline="alphabetic">     check-in     </text></g></g><g id="_703B2C93-7DC6-4277-884E-BD09F79DDB88" bpmn2nodeid="_703B2C93-7DC6-4277-884E-BD09F79DDB88"><g><path fill="none" stroke="rgb(0,0,0)" paint-order="fill stroke markers" d=" M 530 141.8625 L 718.0000239157591 141.526785671579" stroke-miterlimit="10" stroke-dasharray=""/></g><g transform="matrix(1,0,0,1,530,141.8625)"/><g transform="matrix(0.001785711438600381,0.999998405616058,-0.999998405616058,0.001785711438600381,732.991071442807,136.5000079719197)"><path fill="rgb(0,0,0)" stroke="rgb(0,0,0)" paint-order="fill stroke markers" d=" M 10 15 L 0 15 L 5 0 Z" stroke-miterlimit="10" stroke-dasharray=""/></g><g transform="matrix(1,0,0,1,531.5180165527802,131.68126594383943)"/></g><g transform="matrix(1,0,0,1,733,82)"/><g id="_82EFB519-56A9-4AA9-A4FF-B61FD565FE9C" bpmn2nodeid="_82EFB519-56A9-4AA9-A4FF-B61FD565FE9C" transform="matrix(1,0,0,1,1116,114)"><g><path fill="none" stroke="none"/></g><g transform="matrix(0.125,0,0,0.125,0,0)"><g transform="matrix(1,0,0,1,0,0)"><path fill="#fef4ea" stroke="none" id="_82EFB519-56A9-4AA9-A4FF-B61FD565FE9C?shapeType=BACKGROUND" paint-order="stroke fill markers" d=" M 0 0 M 224.4 4.3 C 216.4 4.3 208.4 7.3 202.3 13.399999999999999 L 13.5 202.2 C 1.3000000000000007 214.39999999999998 1.3000000000000007 234.2 13.5 246.39999999999998 L 202.2 435.09999999999997 C 208.29999999999998 441.2 216.39999999999998 444.2 224.29999999999998 444.2 C 232.2 444.2 240.29999999999998 441.2 246.39999999999998 435.09999999999997 L 435.09999999999997 246.39999999999998 C 447.29999999999995 234.2 447.29999999999995 214.39999999999998 435.09999999999997 202.2 L 246.5 13.4 C 240.4 7.3 232.4 4.3 224.4 4.3 L 224.4 4.3 Z"/></g><g><g transform="matrix(1,0,0,1,0,0)"><g transform="matrix(1,0,0,1,0,0)"><path fill="rgb(236,122,8)" stroke="none" id="_82EFB519-56A9-4AA9-A4FF-B61FD565FE9C?shapeType=BORDER&amp;renderType=FILL" paint-order="stroke fill markers" d=" M 0 0 M 20.8 212.7 L 213.3 20.2 C 219.60000000000002 13.899999999999999 229.70000000000002 13.899999999999999 235.9 20.2 L 428.4 212.7 C 434.7 219 434.7 229.1 428.4 235.29999999999998 L 235.9 427.8 C 229.6 434.1 219.5 434.1 213.3 427.8 L 20.8 235.3 C 14.5 229.1 14.5 218.9 20.8 212.7 L 20.8 212.7 Z M 0 0 M 0 224 C 0 232.1 3.1 240.3 9.3 246.5 L 201.5 438.7 C 213.9 451.09999999999997 234.1 451.09999999999997 246.5 438.7 L 438.7 246.5 C 444.9 240.3 448 232.1 448 224 C 448 215.9 444.9 207.7 438.7 201.5 L 246.5 9.3 C 234.1 -3.0999999999999996 213.9 -3.0999999999999996 201.5 9.3 L 9.3 201.5 C 3.1 207.7 0 215.9 0 224 L 0 224 Z"/></g></g></g><g><g transform="matrix(1,0,0,1,0,0)"><g transform="matrix(1,0,0,1,0,0)"><path fill="#ec7a08" stroke="none" id="_82EFB519-56A9-4AA9-A4FF-B61FD565FE9Cundefined" paint-order="stroke fill markers" d=" M 0 0 M 298.2 269.2 C 298.2 272.59999999999997 297.09999999999997 275.3 294.7 277.7 L 277.7 294.7 C 275.3 297.09999999999997 272.59999999999997 298.2 269.2 298.2 C 265.8 298.2 263.09999999999997 297.09999999999997 260.7 294.7 L 224 258 L 187.2 294.8 C 184.79999999999998 297.2 182.1 298.3 178.7 298.3 C 175.29999999999998 298.3 172.6 297.2 170.2 294.8 L 153.2 277.8 C 150.79999999999998 275.40000000000003 149.7 272.7 149.7 269.3 C 149.7 265.90000000000003 150.79999999999998 263.2 153.2 260.8 L 190 224 L 153.2 187.2 C 150.79999999999998 184.79999999999998 149.7 182 149.7 178.7 C 149.7 175.29999999999998 150.79999999999998 172.5 153.2 170.2 L 170.2 153.2 C 172.6 150.79999999999998 175.29999999999998 149.7 178.7 149.7 C 182.1 149.7 184.79999999999998 150.79999999999998 187.2 153.2 L 224 190 L 260.8 153.2 C 263.2 150.79999999999998 265.90000000000003 149.7 269.3 149.7 C 272.7 149.7 275.40000000000003 150.79999999999998 277.8 153.2 L 294.8 170.2 C 297.2 172.5 298.3 175.29999999999998 298.3 178.7 C 298.3 182 297.2 184.79999999999998 294.8 187.2 L 258 224 L 294.8 260.8 C 297.1 263.1 298.2 265.9 298.2 269.2 Z"/></g></g></g></g><g transform="matrix(1,0,0,1,-54.29296875,61)"><text fill="#000000" stroke="none" font-family="Open Sans" font-size="12pt" font-style="normal" font-weight="normal" text-decoration="normal" x="82.29296875" y="12" text-anchor="middle" dominant-baseline="alphabetic">Chamada foi sucesso?</text></g></g><g transform="matrix(1,0,0,1,1116,114)"/><g id="_1A9BD4CB-414B-4059-850D-51CEA52E8E7F" bpmn2nodeid="_1A9BD4CB-414B-4059-850D-51CEA52E8E7F"><g><path fill="none" stroke="rgb(0,0,0)" paint-order="fill stroke markers" d=" M 897 141.63621262458472 L 1101.000020695093 141.97508309085563" stroke-miterlimit="10" stroke-dasharray=""/></g><g transform="matrix(1,0,0,1,897,141.63621262458472)"/><g transform="matrix(-0.0016611272762911058,0.9999986203271343,-0.9999986203271343,-0.0016611272762911058,1116.0083056363815,137.00000689836432)"><path fill="rgb(0,0,0)" stroke="rgb(0,0,0)" paint-order="fill stroke markers" d=" M 10 15 L 0 15 L 5 0 Z" stroke-miterlimit="10" stroke-dasharray=""/></g><g transform="matrix(1,0,0,1,906.5167492400495,131.818120109021)"/></g><g id="_A54774B9-095E-4B60-9E8A-E779C817512F" bpmn2nodeid="_A54774B9-095E-4B60-9E8A-E779C817512F" transform="matrix(1,0,0,1,1116,363)"><g><path fill="none" stroke="none"/></g><g transform="matrix(0.125,0,0,0.125,0,0)"><g transform="matrix(1,0,0,1,0,0)"><path fill="#fce7e7" stroke="none" id="_A54774B9-095E-4B60-9E8A-E779C817512F?shapeType=BACKGROUND" paint-order="stroke fill markers" d=" M 0 0 M 444 224 C 444 263.9 434.2 300.8 414.4 334.5 C 394.7 368.2 368 394.9 334.4 414.5 C 300.79999999999995 434.1 263.9 444 224 444 C 184.10000000000002 444 147.2 434.2 113.5 414.4 C 79.8 394.7 53.1 368 33.5 334.4 C 13.899999999999999 300.79999999999995 4 263.9 4 224 C 4 184.10000000000002 13.8 147.2 33.6 113.5 C 53.400000000000006 79.80000000000001 80.1 53.1 113.6 33.5 C 147.1 13.899999999999999 184.1 4 224 4 C 263.9 4 300.8 13.8 334.5 33.6 C 368.2 53.400000000000006 394.9 80.1 414.5 113.6 C 434.1 147.1 444 184.1 444 224 Z"/></g><g><g transform="matrix(1,0,0,1,0,0)"><g transform="matrix(1,0,0,1,0,0)"><path fill="rgb(163,0,0)" stroke="none" id="_A54774B9-095E-4B60-9E8A-E779C817512F?shapeType=BORDER&amp;renderType=FILL" paint-order="stroke fill markers" d=" M 0 0 M 224 0 C 100.3 0 0 100.3 0 224 C 0 347.7 100.3 448 224 448 C 347.7 448 448 347.7 448 224 C 448 100.30000000000001 347.7 0 224 0 Z M 0 0 M 224 400 C 126.8 400 48 321.2 48 224 C 48 126.80000000000001 126.8 48 224 48 C 321.2 48 400 126.8 400 224 C 400 321.2 321.2 400 224 400 Z"/></g></g></g></g><g transform="matrix(1,0,0,1,-70.28125,61)"><text fill="#000000" stroke="none" font-family="Open Sans" font-size="12pt" font-style="normal" font-weight="normal" text-decoration="normal" x="98.28125" y="12" text-anchor="middle" dominant-baseline="alphabetic">App aguarda confirmação </text><text fill="#000000" stroke="none" font-family="Open Sans" font-size="12pt" font-style="normal" font-weight="normal" text-decoration="normal" x="98.28125" y="27" text-anchor="middle" dominant-baseline="alphabetic">              do sistema              </text></g></g><g id="_5536D6AE-7661-4418-954F-DACE82C59C1A" bpmn2nodeid="_5536D6AE-7661-4418-954F-DACE82C59C1A"><g><path fill="none" stroke="rgb(0,0,0)" paint-order="fill stroke markers" d=" M 1144 170 L 1144 348" stroke-miterlimit="10" stroke-dasharray=""/></g><g transform="matrix(1,0,0,1,1144,170)"/><g transform="matrix(-1,1.2246467991473532e-16,-1.2246467991473532e-16,-1,1149,363)"><path fill="rgb(0,0,0)" stroke="rgb(0,0,0)" paint-order="fill stroke markers" d=" M 10 15 L 0 15 L 5 0 Z" stroke-miterlimit="10" stroke-dasharray=""/></g><g transform="matrix(1,0,0,1,1154,266.5)"/></g><g transform="matrix(1,0,0,1,1116,363)"/><g id="_3CDA2F02-509A-4696-B436-94D10187C2A5" bpmn2nodeid="_3CDA2F02-509A-4696-B436-94D10187C2A5"><g><path fill="none" stroke="rgb(0,0,0)" paint-order="fill stroke markers" d=" M 1172 141.9998343769753 L 1248.0008403877714 141.99938482379432 L 1248.0008403877714 54 L 453 54 L 453 76" stroke-miterlimit="10" stroke-dasharray=""/></g><g transform="matrix(1,0,0,1,1172,141.9998343769753)"/><g transform="matrix(-1,1.2246467991473532e-16,-1.2246467991473532e-16,-1,458,91)"><path fill="rgb(0,0,0)" stroke="rgb(0,0,0)" paint-order="fill stroke markers" d=" M 10 15 L 0 15 L 5 0 Z" stroke-miterlimit="10" stroke-dasharray=""/></g><g transform="matrix(1,0,0,1,1172.0000591510802,131.99960960055975)"/></g></g></g></svg>